Towering Inferno 1974 BluRay 1080p DTS x264-LoNeWoLf 

Encoder Tequila-Bob a.k.a. bobnjeff a.k.a.LoNeWoLf

Source - NTSC BluRay Disc.

Movie has been tested and is DXVA Compliant
 
http://www.imdb.com/title/tt0072308/

The Towering Inferno (1974) 
  165 min  -  Action | Thriller   -  14 December 1974 (USA) 
6.8/10 X  Users: 6.8/10 (14,775 votes) 160 reviews | Critics: 59 reviews 
At the opening party of a collosal, but poorly constructed, office building, a massive fire breaks out that threatens to destroy the tower and everyone in it. 


Director: John Guillermin
Writers: Stirling Silliphant (screenplay), Richard Martin Stern (novel), and 2 more credits » 
Stars:Paul Newman, Steve McQueen ,William Holden  
 
Rated: PG

Genres:Action ,Thriller

Release Date:14 December 1974 (USA) 

Storyline
Doug Roberts, Architect, returns from a long vacation to find work nearly completed on his skyscraper. He goes to the party that night concerned he\'s found that his wiring specifications have not been followed and that the building continues to develope short circuits. When the fire begins Michael O\'Halleran is the chief on duty as a series of daring rescues punctuate the terror of a building too tall to have a fire successfully fought from the ground burns. Written by John Vogel  



Cast
Cast overview, first billed only: 
  Steve McQueen  ...  Chief O\'Hallorhan  
  Paul Newman  ...  Doug Roberts  
  William Holden  ...  Jim Duncan  
  Faye Dunaway  ...  Susan  
  Fred Astaire  ...  Harlee Claiborne  
  Susan Blakely  ...  Patty  
  Richard Chamberlain  ...  Simmons  
  Jennifer Jones  ...  Liselotte  
  O.J. Simpson  ...  Jernigan  
  Robert Vaughn  ...  Senator Parker  
  Robert Wagner  ...  Bigelow  
  Susan Flannery  ...  Lorrie  
  Sheila Allen  ...  Paula Ramsay (as Sheila Mathews)  
  Norman Burton  ...  Giddings (as Normann Burton)  
  Jack Collins  ...  Mayor Ramsay  


[img]http://torrent-stats.info/bceb/dac49591.png[/img]


See the full size 1920x816 PNG files at the link below
 
http://s1015.photobucket.com/albums/af279/tequila-bob/Towering%20Inferno%201974/






Format : Matroska 
File size : 13.0 GiB 
Duration : 2h 44mn 
Overall bit rate : 11.3 Mbps 
Encoded date : UTC 2011-02-01 01:12:09 
Writing application : mkvmerge v4.4.0 (\'Die Wiederkehr\') built on Oct 31 2010 21:52:48 
Writing library : libebml v1.0.0 + libmatroska v1.0.0 

Video 
ID : 1 
Format : AVC 
Format/Info : Advanced Video Codec 
Format profile : High@L4.1 
Format settings, CABAC : Yes 
Format settings, ReFrames : 4 frames 
Muxing mode : Container profile=Unknown@4.1 
Codec ID : V_MPEG4/ISO/AVC 
Duration : 2h 44mn 
Bit rate : 9 749 Kbps 
Width : 1 920 pixels 
Height : 816 pixels 
Display aspect ratio : 2.35:1 
Frame rate : 23.976 fps 
Color space : YUV 
Chroma subsampling : 4:2:0 
Bit depth : 8 bits 
Scan type : Progressive 
Bits/(Pixel*Frame) : 0.260 
Stream size : 11.0 GiB (85%) 
Writing library : x264 core 112 r1867 22bfd31 
Encoding settings : cabac=1 / ref=5 / deblock=1:-3:-3 / analyse=0x3:0x113 / me=umh / subme=9 / psy=1 / psy_rd=1.00:0.08 / mixed_ref=1 / me_range=32 / chroma_me=1 / trellis=2 / 8x8dct=1 / cqm=0 / deadzone=21,11 / fast_pskip=0 / chroma_qp_offset=-3 / threads=6 / sliced_threads=0 / nr=0 / decimate=1 / interlaced=0 / constrained_intra=0 / bframes=6 / b_pyramid=1 / b_adapt=1 / b_bias=0 / direct=1 / weightb=1 / open_gop=2 / weightp=2 / keyint=250 / keyint_min=23 / scenecut=40 / intra_refresh=0 / rc_lookahead=100 / rc=2pass / mbtree=1 / bitrate=9749 / ratetol=1.0 / qcomp=0.60 / qpmin=10 / qpmax=51 / qpstep=4 / cplxblur=20.0 / qblur=0.5 / vbv_maxrate=50000 / vbv_bufsize=50000 / nal_hrd=none / ip_ratio=1.40 / aq=1:1.50 
Language : English 

Audio 
ID : 2 
Format : DTS 
Format/Info : Digital Theater Systems 
Codec ID : A_DTS 
Duration : 2h 44mn 
Bit rate mode : Constant 
Bit rate : 1 510 Kbps 
Channel(s) : 6 channels 
Channel positions : Front: L C R, Side: L R, LFE 
Sampling rate : 48.0 KHz 
Bit depth : 24 bits 
Video delay : 10ms 
Stream size : 1.74 GiB (13%) 
Title : 3/2+1 
Language : English 

Text #1 
ID : 3 
Format : PGS 
Codec ID : S_HDMV/PGS 
Codec ID/Info : The same subtitle format used on BDs/HD-DVDs 
Language : English 

Text #2 
ID : 4 
Format : PGS 
Codec ID : S_HDMV/PGS 
Codec ID/Info : The same subtitle format used on BDs/HD-DVDs 
Language : French 

Text #3 
ID : 5 
Format : PGS 
Codec ID : S_HDMV/PGS 
Codec ID/Info : The same subtitle format used on BDs/HD-DVDs 
Language : French 

Text #4 
ID : 6 
Format : PGS 
Codec ID : S_HDMV/PGS 
Codec ID/Info : The same subtitle format used on BDs/HD-DVDs 
Language : Spanish 

Text #5 
ID : 7 
Format : PGS 
Codec ID : S_HDMV/PGS 
Codec ID/Info : The same subtitle format used on BDs/HD-DVDs 
Language : Spanish 

Menu & 31 Chapters





See the full size 1920x816 PNG files at the link below
 
http://s1015.photobucket.com/albums/af279/tequila-bob/Towering%20Inferno%201974/


